<svg height="512pt" viewBox="0 -65 512 512" width="512pt" xmlns="http://www.w3.org/2000/svg"><path d="m511.988281 120.269531c-1.359375-34.421875-30.105469-65.695312-80.949219-88.058593-47.222656-20.769532-109.386718-32.210938-175.039062-32.210938-66.4375 0-129.132812 11.675781-176.535156 32.878906-51.246094 22.921875-79.464844 54.855469-79.464844 89.917969v85.457031h170.285156v-81.363281c26.875-5.25 55.394532-7.90625 84.960938-7.90625 30.15625 0 59.1875 2.753906 86.46875 8.199219v81.070312h170.285156v-87.390625zm-481.988281 57.984375v-29.300781h110.285156v29.300781zm225.246094-89.269531c-36.125 0-70.875 3.742187-103.292969 11.125l-11.667969 2.65625v16.1875h-110.054687c2.425781-20.964844 24.523437-42.15625 61.480469-58.6875 43.636718-19.515625 101.980468-30.265625 164.289062-30.265625 61.585938 0 119.460938 10.539062 162.960938 29.671875 37.714843 16.589844 60.414062 38.066406 62.851562 59.28125h-110.097656v-15.796875l-11.609375-2.695312c-32.824219-7.617188-68.105469-11.476563-104.859375-11.476563zm116.46875 89.269531v-29.300781h110.285156v29.300781zm0 0"/><path d="m156 328.289062h50v23.832032h-49.667969v30h79.667969v-137.832032h-80zm30-54h20v24h-20zm0 0"/><path d="m267.332031 243.953125h30v137.917969h-30zm0 0"/><path d="m328.667969 243.953125h30v137.917969h-30zm0 0"/></svg>