<svg height="512pt" viewBox="0 0 512 512" width="512pt" xmlns="http://www.w3.org/2000/svg"><path d="m437.019531 74.980469c-48.351562-48.351563-112.640625-74.980469-181.019531-74.980469s-132.667969 26.628906-181.019531 74.980469c-48.351563 48.351562-74.980469 112.640625-74.980469 181.019531s26.628906 132.667969 74.980469 181.019531c48.351562 48.351563 112.640625 74.980469 181.019531 74.980469s132.667969-26.628906 181.019531-74.980469c48.351563-48.351562 74.980469-112.640625 74.980469-181.019531s-26.628906-132.667969-74.980469-181.019531zm-181.019531 407.019531c-124.617188 0-226-101.382812-226-226s101.382812-226 226-226 226 101.382812 226 226-101.382812 226-226 226zm0 0"/><path d="m256 120c-74.992188 0-136 61.007812-136 136s61.007812 136 136 136 136-61.007812 136-136-61.007812-136-136-136zm0 242c-58.449219 0-106-47.550781-106-106s47.550781-106 106-106 106 47.550781 106 106-47.550781 106-106 106zm0 0"/><path d="m241 60h30v30h-30zm0 0"/><path d="m256 180c-41.90625 0-76 34.09375-76 76s34.09375 76 76 76 76-34.09375 76-76-34.09375-76-76-76zm0 122c-25.363281 0-46-20.636719-46-46s20.636719-46 46-46 46 20.636719 46 46-20.636719 46-46 46zm0 0"/></svg>