<?xml version="1.0" encoding="iso-8859-1"?>
<!-- Generator: Adobe Illustrator 19.0.0, SVG Export Plug-In . SVG Version: 6.00 Build 0)  -->
<svg version="1.1" id="Capa_1" xmlns="http://www.w3.org/2000/svg" xmlns:xlink="http://www.w3.org/1999/xlink" x="0px" y="0px"
	 viewBox="0 0 512 512" style="enable-background:new 0 0 512 512;" xml:space="preserve">
<g>
	<g>
		<path d="M256,0C116.513,0,0,116.141,0,256c0,139.481,116.134,256,256,256c139.481,0,256-116.134,256-256
			C512,116.519,395.866,0,256,0z M96.901,415.099C11.255,329.453,7.845,197.225,86.639,107.852l78.572,78.572
			C135.86,226.684,121,260.105,121,286c0,74.439,60.561,135,135,135c39.45,0,75-17.011,99.706-44.081l48.442,48.442
			C314.775,504.154,182.547,500.744,96.901,415.099z M334.471,355.684C315.223,377.334,287.18,391,256,391
			c-57.897,0-105-47.103-105-105c0-21.143,15.492-49.851,35.681-78.106L334.471,355.684z M205.019,183.806
			c17.868-22.195,36.788-42.571,50.984-56.827C292.709,163.822,361,241.549,361,286c0,15.733-3.485,30.665-9.712,44.075
			L205.019,183.806z M425.361,404.148l-51.817-51.818C384.649,332.728,391,310.093,391,286c0-31.034-21.326-72.87-63.384-124.344
			c-30.256-37.03-60.044-65.356-61.297-66.544c-5.786-5.483-14.851-5.483-20.637,0c-1.253,1.188-31.041,29.514-61.297,66.544
			c-0.229,0.281-0.449,0.557-0.678,0.837l-75.856-75.856C149.392,50.015,201.449,30,256,30c59.455,0,115.957,23.759,159.099,66.901
			C500.745,182.547,504.154,314.775,425.361,404.148z"/>
	</g>
</g>
<g>
</g>
<g>
</g>
<g>
</g>
<g>
</g>
<g>
</g>
<g>
</g>
<g>
</g>
<g>
</g>
<g>
</g>
<g>
</g>
<g>
</g>
<g>
</g>
<g>
</g>
<g>
</g>
<g>
</g>
</svg>
