<?xml version="1.0" encoding="iso-8859-1"?>
<!-- Generator: Adobe Illustrator 19.0.0, SVG Export Plug-In . SVG Version: 6.00 Build 0)  -->
<svg version="1.1" id="Capa_1" xmlns="http://www.w3.org/2000/svg" xmlns:xlink="http://www.w3.org/1999/xlink" x="0px" y="0px"
	 viewBox="0 0 512 512" style="enable-background:new 0 0 512 512;" xml:space="preserve">
<g>
	<g>
		<path d="M112.894,360.112h-0.292c-5.522,0-10,4.477-10,10s4.478,10,10,10h0.292c5.522,0,10-4.477,10-10
			S118.416,360.112,112.894,360.112z"/>
	</g>
</g>
<g>
	<g>
		<path d="M479.862,318.482H352.365c-0.008-2.636-0.014-5.271-0.017-7.898l-0.116-75.686l53.338-44.627
			c20.65-17.278,22.34-39.041,17.036-53.646c-5.976-16.452-20.774-27.083-37.703-27.083c-10.643,0-21.473,4.245-31.318,12.277
			l-43.758,35.692l-96.887-0.133l-43.509-36.936c-10.066-8.544-21.423-13.061-32.845-13.061c-17.58,0-33.5,11.087-39.615,27.588
			c-6.929,18.694-0.246,39.15,17.874,54.719l52.686,45.269l-0.256,23.645c-4.634-2.344-9.86-3.758-15.431-3.984
			c-0.135-0.005-0.271-0.008-0.405-0.008H64.277v-53.873c0-11.315-9.196-20.52-20.5-20.52H20.5c-11.304,0-20.5,9.205-20.5,20.52
			v293.417C0,503.994,7.998,512,17.83,512h31.214c9.832,0,17.831-8.006,17.831-17.846V446.69h99.838v17.382
			c0,25.688,19.577,46.587,43.642,46.587c24.064,0,43.643-20.899,43.643-46.587V446.69h11.834v17.382
			c0,25.688,19.577,46.587,43.642,46.587c24.064,0,43.642-20.899,43.642-46.587c0-5.779-0.011-11.579-0.026-17.382h92.035v47.045
			c0,9.841,7.999,17.847,17.831,17.847h31.213c9.832,0,17.831-8.006,17.831-17.847V350.663
			C511.999,332.918,497.582,318.482,479.862,318.482z M20,200.736c0-0.262,0.248-0.52,0.5-0.52h23.276c0.252,0,0.5,0.258,0.5,0.52
			v117.746H32.138c-4.294,0-8.39,0.854-12.138,2.391V200.736z M46.875,492H20v-47.7c3.748,1.537,7.844,2.391,12.138,2.391h14.737
			V492z M166.713,426.691H32.138v-0.001c-6.692,0-12.138-5.464-12.138-12.181v-34.396h62.914c5.522,0,10-4.477,10-10
			s-4.478-10-10-10H20v-9.449c0-6.717,5.445-12.181,12.138-12.181h134.575V426.691z M166.773,305.06
			c-1.038,7.568-7.509,13.422-15.334,13.422H64.277v-43.873h86.937c8.825,0.446,15.712,7.234,15.72,15.531L166.773,305.06z
			 M265.831,426.69h-11.834v-48h11.834V426.69z M309.473,490.66c-13.036,0-23.642-11.927-23.642-26.587V368.69
			c0-5.523-4.478-10-10-10h-31.834c-5.522,0-10,4.477-10,10v95.382c0,12.787-9.039,26.587-23.643,26.587
			c-13.036,0-23.642-11.927-23.642-26.587V320.599H332.37c0.008,2.625,0.016,5.25,0.026,7.879c0,0.001,0,0.003,0,0.004
			c0,0.002,0,0.003,0,0.005c0.072,18.219,0.203,36.496,0.33,54.317c0.19,26.636,0.388,54.179,0.388,81.269
			C333.115,476.859,324.076,490.66,309.473,490.66z M335.807,222.561c-2.275,1.903-3.588,4.719-3.583,7.685l0.107,70.352H186.935
			l0.645-70.083c0.032-2.953-1.242-5.769-3.482-7.693l-56.22-48.305c-11.682-10.037-16.111-21.919-12.153-32.599
			c3.223-8.696,11.606-14.538,20.861-14.538c6.617,0,13.499,2.872,19.901,8.308l46.303,39.307c1.804,1.531,4.092,2.373,6.458,2.376
			l104.12,0.143h0.014c2.303,0,4.536-0.795,6.32-2.251l46.523-37.948c6.235-5.086,12.693-7.775,18.677-7.775
			c8.415,0,15.835,5.461,18.904,13.91c3.875,10.669-0.264,22.438-11.071,31.48L335.807,222.561z M491.999,491.581h-26.875V446.69
			h14.737c4.294,0,8.391-0.854,12.138-2.391V491.581z M492,414.509c0,6.717-5.445,12.181-12.138,12.181H353.01
			c-0.074-14.802-0.179-29.55-0.282-44.029c-0.104-14.518-0.21-29.34-0.284-44.179h127.418c6.692,0,12.138,5.464,12.138,12.181
			V414.509z"/>
	</g>
</g>
<g>
	<g>
		<path d="M343.736,55.809c-2.143-2.372-5.163-3.47-8.122-3.264C326.213,22.155,297.878,0,264.519,0h-0.171
			c-19.881,0.045-38.553,7.843-52.577,21.958c-11.639,11.715-18.901,26.621-21.012,42.735c-3.17,0.137-6.222,1.777-8.039,4.665
			c-2.941,4.675-1.536,10.848,3.138,13.79c1.432,0.901,3.13,1.608,5.032,2.144c5.228,36.011,36.273,63.786,73.622,63.786h0.172
			c41.032-0.092,74.34-33.606,74.247-74.707c-0.001-0.391-0.025-0.776-0.032-1.166c1.459-1.029,2.841-2.117,4.119-3.272
			C347.117,66.231,347.438,59.908,343.736,55.809z M210.868,65.432c1.845-11.064,7.033-21.267,15.091-29.378
			c10.253-10.32,23.902-16.021,38.434-16.054h0.126c25.505,0,46.986,17.725,52.831,41.527c-14.623,4.103-36.522,1.135-61.084-14.979
			c-4.331-2.84-10.112-1.904-13.326,2.155C235.762,57.769,221.823,63.183,210.868,65.432z M264.639,129.078h-0.127
			c-26.17,0-48.114-18.657-53.266-43.398c14.102-2.192,30.108-8.589,41.082-18.062c25.125,14.577,48.211,17.825,66.109,14.159
			C314.9,108.388,292.152,129.016,264.639,129.078z"/>
	</g>
</g>
<g>
</g>
<g>
</g>
<g>
</g>
<g>
</g>
<g>
</g>
<g>
</g>
<g>
</g>
<g>
</g>
<g>
</g>
<g>
</g>
<g>
</g>
<g>
</g>
<g>
</g>
<g>
</g>
<g>
</g>
</svg>
